<svg width="16" height="16" viewBox="0 0 16 16" fill="none" xmlns="http://www.w3.org/2000/svg">
<path d="M3.70711 0.707106L7.29289 4.29289C7.68342 4.68342 8.31658 4.68342 8.70711 4.29289L12.2929 0.707107C12.6834 0.316583 13.3166 0.316583 13.7071 0.707107L15.2929 2.29289C15.6834 2.68342 15.6834 3.31658 15.2929 3.70711L11.7071 7.29289C11.3166 7.68342 11.3166 8.31658 11.7071 8.70711L15.2929 12.2929C15.6834 12.6834 15.6834 13.3166 15.2929 13.7071L13.7071 15.2929C13.3166 15.6834 12.6834 15.6834 12.2929 15.2929L8.70711 11.7071C8.31658 11.3166 7.68342 11.3166 7.29289 11.7071L3.70711 15.2929C3.31658 15.6834 2.68342 15.6834 2.29289 15.2929L0.707107 13.7071C0.316582 13.3166 0.316582 12.6834 0.707106 12.2929L4.29289 8.70711C4.68342 8.31658 4.68342 7.68342 4.29289 7.29289L0.707107 3.70711C0.316583 3.31658 0.316583 2.68342 0.707107 2.29289L2.29289 0.707107C2.68342 0.316582 3.31658 0.316582 3.70711 0.707106Z" />
</svg>
