<svg id="Layer_1" data-name="Layer 1" xmlns="http://www.w3.org/2000/svg" viewBox="0 0 480 480">
  <title>logo</title>
  <path class="fill-current text-secondary" d="M211.16,10V57.94Q176,10,120.48,10,75.41,10,42.7,43.35T10,123.87Q10,171,42.7,204.52T120.48,238q55.5,0,90.68-48.21v137q0,16.94-5.73,27.88-10.17,19-25.67,28.93a63.36,63.36,0,0,1-34.79,9.9l-35.6-.26q-7.82,0-11.21,3.12a10.53,10.53,0,0,0-3.38,8.08,10.12,10.12,0,0,0,3.38,8q3.39,3,11.21,3h34.82q20.07,0,32.05-5.21t26.58-17.45q14.6-12.25,20.85-23.72,9.38-17.19,9.38-39.08V10ZM184.71,189.14q-26.44,26.72-63.19,26.71t-63-26.71q-26.32-26.7-26.32-65.27,0-38.31,26.32-65t63.05-26.71q36.75,0,63.19,26.58t26.45,65.14Q211.16,162.44,184.71,189.14Z"/>
  <path class="fill-current text-secondary" d="M448.11,10V57.94Q412.94,10,357.43,10q-45.07,0-77.78,33.35T247,123.87q0,47.16,32.7,80.65T357.43,238q55.5,0,90.68-48.21V381.41q0,16.93-5.73,27.88-10.15,19-25.67,28.92a63.25,63.25,0,0,1-34.78,9.9H98.59q-16.94,0-27.88-5.73-19-10.15-28.92-25.67a63.25,63.25,0,0,1-9.9-34.78l.26-91.55q0-7.81-3.13-11.2a10.49,10.49,0,0,0-8.08-3.39A10.08,10.08,0,0,0,13,279.18q-3,3.38-3,11.2v90.77q0,20.06,5.21,32.05t17.46,26.57q12.26,14.6,23.71,20.85Q73.58,470,95.47,470H381.15q20.06,0,32.05-5.21t26.57-17.46q14.6-12.25,20.85-23.71Q470,406.42,470,384.53V10ZM421.66,189.14q-26.45,26.72-63.18,26.71t-63.06-26.71q-26.32-26.7-26.32-65.27,0-38.31,26.32-65t63.06-26.71q36.74,0,63.18,26.58t26.45,65.14Q448.11,162.44,421.66,189.14Z"/>
</svg>
